<?xml version="1.0" standalone="no"?>
<!DOCTYPE svg PUBLIC "-//W3C//DTD SVG 20010904//EN"
 "http://www.w3.org/TR/2001/REC-SVG-20010904/DTD/svg10.dtd">
<svg version="1.0" xmlns="http://www.w3.org/2000/svg"
 width="700.000000pt" height="700.000000pt" viewBox="0 0 700.000000 700.000000"
 preserveAspectRatio="xMidYMid meet">
<metadata>
Created by potrace 1.11, written by Peter Selinger 2001-2013
</metadata>
<g transform="translate(0.000000,700.000000) scale(0.100000,-0.100000)"
fill="#000000" stroke="none">
<path d="M2854 5114 c-587 -98 -1005 -614 -981 -1209 22 -523 375 -959 884
-1091 136 -36 350 -44 490 -19 180 32 355 107 495 211 l72 53 23 -21 c20 -18
23 -31 23 -93 0 -42 5 -77 13 -86 6 -8 211 -213 455 -454 l443 -439 129 129
c72 72 129 133 128 137 -2 4 -205 210 -452 458 l-449 450 -72 0 c-62 0 -74 3
-94 24 l-22 23 24 29 c75 91 147 220 191 342 53 148 61 203 60 402 0 167 -3
195 -27 283 -57 214 -150 377 -302 532 -155 158 -305 247 -517 309 -162 47
-349 58 -514 30z m414 -373 c145 -42 278 -125 382 -238 79 -86 131 -176 172
-294 27 -82 32 -111 36 -224 5 -149 -14 -253 -68 -371 -78 -172 -241 -332
-418 -411 -137 -60 -356 -81 -502 -48 -393 91 -658 442 -637 840 7 131 25 202
77 310 110 229 318 395 565 449 98 22 295 15 393 -13z"/>
</g>
</svg>
